<svg version="1.2" xmlns="http://www.w3.org/2000/svg" viewBox="0 0 450 144" width="450" height="144"><style>.a{fill:#dbc8a8}</style><path class="a" d="m450 0v144h-450v-144z"/><path fill-rule="evenodd" d="m49.8 93.9h-4.8l15.5-45.1h6.1l15.5 45.1h-4.8l-3.8-10.9h1.7v-4.3h-3.2l-8.5-24.7-8.5 24.7h-3.1v4.3h1.6zm13.8-39.9l0.9-2.6h-1.8zm-10 28.9l1.5-4.3h17l1.5 4.3zm55.9 11h-6.1l-15.5-45.1h4.8l13.7 39.8 13.9-39.8h4.7zm26.1 0h-4.7l15.5-45.1h6l15.5 45.1h-4.7l-3.8-10.9h1.6v-4.4h-3.1l-8.5-24.6-8.5 24.6h-3.1v4.4h1.6zm13.7-39.9l0.9-2.7h-1.8zm-10 29l1.5-4.3h17l1.5 4.3zm48.1-34.1v45h-4.6v-45zm44.6 45h-26v-45h4.6v40.6h21.4zm15.5 0h-4.7l15.5-45.1h6.1l15.5 45.1h-4.8l-3.8-10.9h1.6v-4.3h-3.1l-8.5-24.7-8.5 24.7h-3.1v4.3h1.6zm13.7-39.9l0.9-2.6h-1.8zm-9.9 28.9l1.4-4.3h17l1.5 4.3zm61.7 11h-18.9v-45.1h17.4q3.8 0 6.6 1.6 2.8 1.5 4.4 4.2 1.6 2.6 1.6 5.8 0 3.6-2 6.5-1.3 1.9-3.3 3.1 3 1.2 4.9 3.6 2.5 3.2 2.5 7.6 0 3.9-1.6 6.8-1.7 2.8-4.7 4.3-3 1.6-6.9 1.6zm5.8-23.9q-0.9-0.4-1.9-0.7v1.5q1-0.3 1.9-0.8zm-20 2.4v17.1h13q2.8 0 5-1 2.2-1 3.4-2.8 1.3-1.8 1.3-4.4 0-2.5-1.2-4.5-1.1-2-3.1-3.2-2-1.2-4.5-1.2zm0-19.3v14.9h12.7q2.2 0 3.9-1 1.8-1 2.8-2.7 1.1-1.7 1.1-4 0-3.2-2.2-5.2-2.2-2-5.6-2zm68.9 40.8h-26v-45.1h4.6v40.7h21.4zm42.1 0h-28.2v-45.1h28.2v4.4h-23.6v15.6h19.8v4.4h-19.8v16.2h23.6z"/></svg>