<svg version="1.2" xmlns="http://www.w3.org/2000/svg" viewBox="0 0 576 91" width="576" height="91"><style>.a{fill:#fff}</style><path fill-rule="evenodd" class="a" d="m47.5 40h-14.6v-2.3h0.1q0.9 0 1.6-0.1 0.8-0.2 1.2-0.5 0.5-0.4 0.8-1 0.3-0.7 0.4-1.9v-29.4l-12.6 35.2h-3l-12.7-35v28.7q0 1.3 0.2 2.1 0.3 0.8 0.8 1.2 0.5 0.4 1.3 0.6 0.7 0.1 1.6 0.1h0.2v2.3h-12.7v-2.3h0.7q0.9 0 1.7-0.1 0.8-0.2 1.5-0.5 0.6-0.4 0.9-1.1 0.4-0.8 0.4-2v-27.2q0-1.2-0.4-2-0.3-0.7-0.9-1.1-0.7-0.4-1.5-0.5-0.8-0.2-1.7-0.2h-0.7v-2.3h12.5l11.4 31.5 11.3-31.5h12.2v2.3h-0.7q-0.9 0-1.8 0.2-0.8 0.1-1.4 0.5-0.6 0.4-1 1.2-0.3 0.8-0.3 2.1v26.7q0 1.3 0.3 2.1 0.4 0.8 1 1.2 0.6 0.4 1.4 0.6 0.9 0.1 1.8 0.1h0.7zm39.8-19.7q0 4.5-1.2 8.3-1.1 3.7-3.3 6.4-2.2 2.6-5.4 4.1-3.2 1.4-7.4 1.4-4.4 0-7.6-1.4-3.3-1.5-5.4-4.1-2.2-2.7-3.2-6.4-1.1-3.8-1.1-8.3 0-4.6 1.1-8.3 1-3.8 3.2-6.4 2.1-2.6 5.4-4 3.3-1.5 7.7-1.5 4.1 0 7.3 1.5 3.2 1.4 5.4 4 2.2 2.7 3.3 6.4 1.2 3.7 1.2 8.3zm-28.5 0q0 4.1 0.6 7.3 0.6 3.2 1.9 5.4 1.4 2.2 3.5 3.4 2.1 1.2 5.2 1.2 3.1 0 5.2-1.2 2.1-1.2 3.4-3.4 1.4-2.2 2-5.4 0.6-3.2 0.6-7.3 0-4.1-0.6-7.3-0.6-3.2-2-5.4-1.3-2.2-3.4-3.4-2.1-1.1-5.1-1.1-3.1 0-5.3 1.1-2.1 1.2-3.5 3.4-1.3 2.2-1.9 5.4-0.6 3.2-0.6 7.3zm68.5 0q0 4.5-1.2 8.2-1.1 3.6-3.3 6.2-2.3 2.5-5.6 3.9-3.4 1.4-7.9 1.4h-16.8v-2.3h0.7q0.9 0 1.7-0.2 0.9-0.1 1.5-0.5 0.6-0.4 1-1.2 0.3-0.8 0.3-2.1v-26.9q0-1.2-0.4-2-0.3-0.7-0.9-1.1-0.6-0.4-1.5-0.5-0.8-0.2-1.7-0.2h-0.7v-2.3h16.8q4.3 0 7.6 1.3 3.3 1.3 5.6 3.8 2.3 2.5 3.5 6.2 1.3 3.6 1.3 8.3zm-24 16.9h4.8q3.2 0 5.7-1.1 2.4-1.1 4.1-3.3 1.6-2.1 2.4-5.3 0.9-3.1 0.9-7.2 0-8.2-3.3-12.5-3.3-4.3-9.8-4.3h-4.8zm40-16.4v16.4h10.6q1.3 0 2.2-0.3 0.9-0.4 1.6-1 0.6-0.6 0.9-1.4 0.4-0.9 0.5-1.8l0.4-2.4h2.9l-0.4 9.7h-29.5v-2.3h0.7q0.9 0 1.7-0.2 0.8-0.1 1.5-0.5 0.6-0.3 0.9-1.1 0.4-0.7 0.4-1.9v-27q0-1.3-0.3-2.1-0.4-0.8-1-1.2-0.6-0.4-1.5-0.6-0.8-0.1-1.7-0.1h-0.7v-2.3h27.7l0.3 9.6h-2.9l-0.2-2.4q-0.1-0.9-0.5-1.7-0.3-0.8-0.9-1.4-0.5-0.6-1.4-1-0.9-0.4-2.1-0.4h-9.2v14.7h13.2v2.7zm53 19.2h-29.5v-2.3h0.7q1 0 1.8-0.2 0.8-0.1 1.4-0.5 0.6-0.5 1-1.2 0.3-0.8 0.3-2.1v-26.7q0-1.3-0.3-2.1-0.4-0.8-1-1.2-0.6-0.4-1.4-0.6-0.8-0.1-1.8-0.1h-0.7v-2.3h16v2.3h-0.7q-0.9 0-1.7 0.1-0.8 0.1-1.5 0.6-0.6 0.4-1 1.1-0.3 0.7-0.3 1.9v30.5h10.8q1.3 0 2.1-0.4 0.9-0.5 1.5-1.2 0.6-0.7 0.8-1.6 0.4-0.9 0.5-1.7l0.5-4.2h2.9zm16.3 0.6q-2.7 0-4.8-0.6-2-0.5-3.4-1.5-1.4-1.1-2.1-2.5-0.7-1.4-0.7-3.2 0-1.6 1-2.6 1.1-1.1 3-1.1 0.1 1.8 0.5 3.3 0.4 1.6 1.3 2.8 0.9 1.2 2.3 2 1.4 0.7 3.3 0.7 3.7 0 5.8-1.8 2.1-1.8 2.1-5.1 0-1.5-0.5-2.7-0.4-1.1-1.4-2.1-1-1-2.6-1.9-1.6-0.9-4.1-1.9-2.5-1-4.4-2.2-1.9-1.2-3.2-2.7-1.2-1.5-1.9-3.3-0.6-1.8-0.6-4 0-2.4 0.9-4.2 0.9-1.9 2.5-3.2 1.6-1.2 3.8-1.9 2.3-0.7 4.9-0.7 2.4 0 4.3 0.5 1.9 0.5 3.3 1.4 1.3 0.9 1.9 2 0.7 1.1 0.7 2.3 0 1.8-1.1 2.7-1.2 0.9-3.2 0.9 0-1.3-0.3-2.6-0.3-1.2-1-2.2-0.8-1-1.9-1.6-1.2-0.6-3-0.6-1.5 0-2.8 0.4-1.2 0.5-2.1 1.3-0.9 0.8-1.3 2-0.5 1.1-0.5 2.5 0 1.7 0.5 2.9 0.4 1.3 1.4 2.3 1 1 2.6 1.9 1.7 0.9 4.1 1.9 2.4 0.9 4.3 2.1 1.9 1.1 3.2 2.4 1.3 1.4 2 3.1 0.7 1.6 0.7 3.7 0 2.6-1 4.7-0.9 2.1-2.7 3.5-1.8 1.4-4.2 2.2-2.5 0.7-5.6 0.7zm68.3-20.2q0 4.5-1.2 8.2-1.1 3.8-3.3 6.4-2.2 2.7-5.4 4.1-3.2 1.5-7.4 1.5-4.4 0-7.6-1.5-3.3-1.4-5.4-4.1-2.2-2.6-3.3-6.4-1-3.7-1-8.3 0-4.6 1-8.3 1.1-3.7 3.3-6.3 2.1-2.7 5.4-4.1 3.3-1.4 7.6-1.4 4.2 0 7.4 1.4 3.2 1.4 5.4 4.1 2.2 2.6 3.3 6.4 1.2 3.7 1.2 8.3zm-28.5 0q0 4 0.6 7.3 0.6 3.2 1.9 5.4 1.4 2.2 3.5 3.4 2.1 1.1 5.2 1.1 3.1 0 5.2-1.1 2.1-1.2 3.4-3.4 1.4-2.2 2-5.4 0.6-3.3 0.6-7.3 0-4.1-0.6-7.3-0.6-3.2-2-5.4-1.3-2.2-3.4-3.4-2.1-1.2-5.2-1.2-3 0-5.2 1.2-2.1 1.2-3.5 3.4-1.3 2.2-1.9 5.4-0.6 3.2-0.6 7.3zm53.5-16.9h-9v15.9h13.2v2.7h-13.2v11.7q0 1.3 0.3 2.1 0.4 0.7 1 1.2 0.6 0.4 1.4 0.5 0.9 0.1 1.8 0.1h1.8v2.3h-17.1v-2.3h0.7q0.9 0 1.7-0.1 0.8-0.1 1.5-0.5 0.6-0.4 0.9-1.1 0.4-0.7 0.4-1.9v-27.3q0-1.2-0.4-1.9-0.3-0.8-0.9-1.2-0.7-0.4-1.5-0.5-0.8-0.1-1.7-0.1h-0.7v-2.3h27.7l0.3 9.6h-2.9l-0.2-2.4q-0.1-0.9-0.5-1.7-0.3-0.8-0.9-1.4-0.6-0.7-1.5-1-0.9-0.4-2.2-0.4zm74.3 36.5h-14.6v-2.3h0.2q0.9 0 1.6-0.1 0.7-0.1 1.2-0.5 0.5-0.3 0.8-1 0.3-0.7 0.3-1.8v-29.4l-12.6 35.1h-3l-12.7-35v28.8q0 1.3 0.3 2.1 0.2 0.7 0.7 1.2 0.6 0.4 1.3 0.5 0.8 0.1 1.7 0.1h0.1v2.3h-12.7v-2.3h0.7q0.9 0 1.7-0.1 0.9-0.1 1.5-0.5 0.6-0.4 1-1.1 0.3-0.7 0.3-1.9v-27.3q0-1.2-0.3-1.9-0.4-0.8-1-1.2-0.6-0.4-1.5-0.5-0.8-0.1-1.7-0.1h-0.7v-2.3h12.6l11.4 31.4 11.2-31.4h12.2v2.3h-0.7q-0.9 0-1.7 0.1-0.9 0.2-1.5 0.6-0.6 0.4-0.9 1.2-0.4 0.7-0.4 2v26.8q0 1.3 0.4 2.1 0.3 0.7 0.9 1.2 0.6 0.4 1.5 0.5 0.8 0.1 1.7 0.1h0.7zm27.7-13.1h-14.5l-2.1 5.8q-0.2 0.6-0.3 1.3-0.2 0.6-0.2 1 0 1.4 0.9 2.1 0.9 0.6 2.8 0.6h1.2v2.3h-13.4v-2.3h1.1q0.8 0 1.3-0.1 0.6-0.2 1.1-0.7 0.4-0.5 0.8-1.3 0.4-0.9 1-2.2l12.1-32.6h4.3l12.5 34q0.3 0.9 0.6 1.4 0.4 0.6 0.8 0.9 0.5 0.4 1.1 0.5 0.6 0.1 1.4 0.1h0.7v2.3h-15.1v-2.3h1.2q3.3 0 3.3-2.6 0-0.5-0.1-0.9-0.1-0.5-0.3-1.1zm-1-2.8l-3.4-9.6q-0.9-2.5-1.6-4.6-0.7-2.1-1.2-4.1-0.1 1-0.4 1.9-0.3 0.9-0.6 1.9-0.2 1-0.6 2-0.4 1.1-0.9 2.4l-3.7 10.1zm36.2 15.9h-17.1v-2.3h1.3q0.9 0 1.7-0.1 0.8-0.2 1.4-0.5 0.7-0.4 1-1.1 0.4-0.8 0.4-2v-10.4l-10.2-17.7q-0.5-0.7-0.9-1.3-0.4-0.5-0.8-0.9-0.4-0.3-1-0.5-0.5-0.2-1.2-0.2h-0.7v-2.3h15.1v2.3h-2q-0.8 0-1.3 0.2-0.4 0.1-0.7 0.3-0.3 0.3-0.4 0.6-0.1 0.3-0.1 0.7 0 0.8 0.4 1.5 0.3 0.8 0.6 1.4l4.1 7.4q1 1.7 1.6 3.3 0.7 1.7 1.2 2.9 0.2-0.5 0.6-1.3 0.3-0.7 0.8-1.5 0.4-0.8 0.9-1.7 0.5-0.9 1-1.7l3.5-6.3q0.5-1 0.7-1.8 0.3-0.9 0.3-1.6 0-1.2-0.9-1.8-0.8-0.6-2.4-0.6h-1.6v-2.3h13.4v2.3h-0.7q-0.5 0-1.1 0.2-0.5 0.2-1 0.7-0.6 0.5-1.2 1.4-0.5 0.8-1.2 2l-9.3 16.3v10.1q0 1.3 0.4 2.1 0.3 0.8 1 1.2 0.6 0.4 1.4 0.5 0.8 0.2 1.7 0.2h1.3zm30.4-36.5h-9v15.8h13.3v2.7h-13.3v11.7q0 1.3 0.3 2.1 0.4 0.8 1 1.2 0.6 0.4 1.5 0.5 0.8 0.2 1.7 0.2h1.8v2.3h-17.1v-2.3h0.7q0.9 0 1.7-0.1 0.9-0.2 1.5-0.6 0.6-0.3 1-1.1 0.3-0.7 0.3-1.9v-27.2q0-1.3-0.3-2-0.4-0.7-1-1.1-0.6-0.4-1.5-0.5-0.8-0.2-1.7-0.2h-0.7v-2.3h27.7l0.3 9.6h-2.8l-0.3-2.3q-0.1-1-0.4-1.8-0.4-0.8-1-1.4-0.6-0.6-1.5-1-0.9-0.3-2.2-0.3zm32.3 23.3h-14.5l-2 5.8q-0.3 0.7-0.4 1.3-0.2 0.6-0.2 1.1 0 1.4 0.9 2 0.9 0.7 2.8 0.7h1.3v2.3h-13.5v-2.3h1.1q0.8 0 1.3-0.2 0.6-0.2 1.1-0.7 0.4-0.5 0.8-1.3 0.5-0.8 1-2.1l12.2-32.7h4.3l12.4 34q0.3 0.9 0.6 1.5 0.4 0.5 0.8 0.9 0.5 0.3 1.1 0.4 0.6 0.2 1.4 0.2h0.7v2.3h-15.1v-2.3h1.2q3.4 0 3.4-2.7 0-0.4-0.2-0.9-0.1-0.5-0.3-1.1zm-1-2.8l-3.4-9.6q-0.9-2.4-1.6-4.6-0.7-2.1-1.1-4.1-0.2 1-0.5 1.9-0.2 1-0.5 1.9-0.3 1-0.7 2.1-0.4 1-0.9 2.3l-3.7 10.1zm32.3 15.9h-16v-2.3h0.7q0.9 0 1.7-0.1 0.9-0.2 1.5-0.6 0.6-0.4 1-1.2 0.3-0.7 0.3-2v-26.8q0-1.3-0.3-2-0.4-0.8-1-1.2-0.6-0.5-1.5-0.6-0.8-0.1-1.7-0.1h-0.7v-2.3h16v2.3h-0.7q-0.9 0-1.8 0.1-0.8 0.1-1.4 0.6-0.6 0.4-1 1.2-0.3 0.7-0.3 2v26.8q0 1.3 0.3 2 0.4 0.8 1 1.2 0.6 0.4 1.4 0.6 0.9 0.1 1.8 0.1h0.7zm25-18.6l7.6 11.9q1.4 2.2 2.7 3.3 1.3 1.1 3.1 1.1h0.1v2.3h-0.8q-2.5 0-4.2-0.2-1.6-0.2-2.8-0.7-1.2-0.5-2-1.5-0.8-1-1.7-2.5l-7.5-12.4h-4.5v11.3q0 1.2 0.3 2 0.4 0.7 1 1.1 0.6 0.4 1.4 0.5 0.9 0.1 1.8 0.1h0.7v2.3h-16v-2.3h0.7q0.9 0 1.7-0.1 0.8-0.1 1.5-0.5 0.6-0.4 0.9-1.1 0.4-0.8 0.4-2v-27.2q0-1.2-0.4-1.9-0.3-0.8-0.9-1.2-0.7-0.4-1.5-0.5-0.8-0.1-1.7-0.1h-0.7v-2.3h14.8q7.1 0 10.6 2.6 3.5 2.6 3.5 8 0 2.2-0.7 3.8-0.7 1.7-1.9 2.9-1.1 1.2-2.6 2-1.4 0.8-2.9 1.3zm-10-18v16.7h3.8q2.4 0 4.1-0.5 1.6-0.6 2.5-1.6 1-1.1 1.4-2.7 0.4-1.6 0.4-3.8 0-2.2-0.4-3.7-0.5-1.6-1.5-2.5-1-1-2.7-1.5-1.6-0.4-3.9-0.4z"/><path fill-rule="evenodd" class="a" d="m222.6 90h-13v-23h1.8v21.2h11.2zm18.6 0.5q-3.4 0-5.8-1.5-2.3-1.6-3.5-4.3-1.2-2.7-1.2-6.2 0-3.5 1.2-6.3 1.2-2.7 3.5-4.2 2.4-1.5 5.8-1.5 3.4 0 5.8 1.5 2.3 1.5 3.5 4.2 1.2 2.8 1.2 6.3 0 3.5-1.2 6.2-1.2 2.7-3.5 4.3-2.4 1.5-5.8 1.5zm0-1.8q2.8 0 4.7-1.3 1.9-1.3 2.9-3.6 0.9-2.3 0.9-5.3 0-3-0.9-5.3-1-2.3-2.9-3.6-1.9-1.3-4.7-1.3-2.8 0-4.7 1.3-1.9 1.3-2.8 3.6-1 2.3-1 5.3 0 3 0.9 5.3 1 2.3 2.9 3.6 1.9 1.3 4.7 1.3zm22.9 1.3h-1.9v-23h1.9l13.3 19.7v-19.7h1.9v23h-1.9l-13.3-19.8zm33.8 0h-6.8v-23h6.8q0.4 0 1.3 0 0.9 0 1.8 0.1 2.5 0.4 4.3 2 1.7 1.6 2.5 4 0.9 2.5 0.9 5.4 0 3-0.9 5.4-0.8 2.4-2.5 4-1.8 1.6-4.3 2-0.9 0.1-1.8 0.1-0.9 0-1.3 0zm-4.9-21.2v19.4h4.9q0.7 0 1.5 0 0.8-0.1 1.3-0.2 2.2-0.4 3.5-1.7 1.3-1.3 1.9-3.3 0.6-2 0.6-4.5 0-2.5-0.6-4.5-0.6-2-1.9-3.3-1.3-1.4-3.5-1.7-0.5-0.1-1.3-0.2-0.8 0-1.5 0zm35.8 21.7q-3.5 0-5.8-1.5-2.3-1.6-3.5-4.3-1.2-2.7-1.2-6.2 0-3.5 1.2-6.2 1.2-2.7 3.5-4.3 2.3-1.5 5.8-1.5 3.4 0 5.7 1.5 2.4 1.6 3.6 4.3 1.2 2.7 1.2 6.2 0 3.5-1.2 6.2-1.2 2.7-3.6 4.3-2.3 1.5-5.7 1.5zm0-1.8q2.8 0 4.7-1.3 1.9-1.3 2.8-3.6 1-2.3 1-5.3 0-3-1-5.3-0.9-2.3-2.8-3.6-1.9-1.3-4.7-1.3-2.8 0-4.7 1.3-1.9 1.3-2.8 3.6-1 2.3-1 5.3-0.1 3 0.9 5.3 0.9 2.3 2.9 3.6 1.9 1.3 4.7 1.3zm22.8 1.3h-1.8v-23h1.8l13.4 19.7v-19.7h1.8v23h-1.8l-13.4-19.8z"/></svg>