<svg version="1.2" xmlns="http://www.w3.org/2000/svg" viewBox="0 0 850 66" width="850" height="66"><style>.a{fill:#fff}</style><path fill-rule="evenodd" class="a" d="m10.6 58.7h-5.4v-52.8h5.4l29.3 43.2v-43.2h5.5v52.8h-5.5l-29.3-43.3zm74.8 1.1q-7.9 0-13.4-3.5-5.4-3.5-8.2-9.7-2.9-6.2-2.9-14.3 0-8.1 2.9-14.3 2.8-6.2 8.2-9.7 5.5-3.5 13.4-3.5 8 0 13.5 3.5 5.4 3.5 8.2 9.7 2.9 6.2 2.9 14.3 0 8.1-2.9 14.3-2.8 6.2-8.2 9.7-5.5 3.5-13.5 3.5zm0-5.2q6.3 0 10.5-2.8 4.1-2.9 6.2-7.9 2.1-5 2.1-11.6 0-6.6-2.1-11.7-2.1-5-6.2-7.8-4.2-2.8-10.5-2.9-6.2 0-10.3 2.9-4.2 2.8-6.3 7.8-2.1 5.1-2.1 11.7 0 6.6 2 11.6 2.1 5 6.3 7.8 4.2 2.9 10.4 2.9zm58.2 4.1h-5.4v-47.7h-18.6v-5.1h42.6v5.1h-18.6zm55.3 0h-5.7l18.4-52.8h7.2l18.3 52.8h-5.6l-4.5-12.8h1.9v-5h-3.7l-10.1-28.9-10 28.9h-3.7v5h1.9zm16.3-46.7l1-3.1h-2.1zm-11.8 34l1.8-5.1h20.1l1.8 5.1zm64.1 12.8h-7.2l-18.4-52.8h5.7l16.2 46.6 16.3-46.6h5.7zm28.8 0h-5.7l18.4-52.8h7.2l18.3 52.8h-5.7l-4.4-12.8h1.9v-5.1h-3.7l-10.1-28.9-10 28.9h-3.7v5.1h1.9zm16.3-46.8l1-3h-2.1zm-11.8 33.9l1.8-5.1h20.1l1.7 5.1zm54.8-40v52.8h-5.5v-52.8zm50.7 52.8h-30.7v-52.8h5.4v47.6h25.3zm36.7 0h-22.3v-52.8h20.6q4.4 0 7.8 1.9 3.3 1.8 5.1 4.9 1.9 3.1 1.9 6.8 0 4.3-2.3 7.6-1.6 2.3-3.9 3.6 3.5 1.5 5.8 4.3 3 3.7 3 8.9 0 4.6-2 7.9-2 3.3-5.5 5.1-3.5 1.8-8.2 1.8zm6.9-28q-1.1-0.5-2.3-0.8l0.1 1.8q1.1-0.4 2.2-1zm-23.7 2.8v20h15.4q3.3 0 5.9-1.1 2.6-1.2 4-3.3 1.5-2.1 1.5-5.1 0-3-1.3-5.3-1.4-2.3-3.8-3.7-2.3-1.5-5.3-1.5zm0-22.5v17.4h15.1q2.5 0 4.6-1.1 2.1-1.2 3.3-3.2 1.3-2 1.3-4.7 0-3.7-2.6-6-2.6-2.4-6.6-2.4zm79.4 47.7h-30.7v-52.8h5.4v47.6h25.3zm47.7 0h-33.3v-52.8h33.3v5.2h-27.9v18.3h23.4v5.1h-23.4v19.1h27.9zm59.5 0h-5.5v-47.7h-18.6v-5.1h42.6v5.1h-18.5zm54.1 1.1q-7.9 0-13.4-3.4-5.4-3.6-8.3-9.8-2.8-6.1-2.8-14.3 0-8.1 2.8-14.3 2.9-6.1 8.3-9.6 5.5-3.6 13.4-3.6 8 0 13.5 3.6 5.4 3.5 8.2 9.6 2.9 6.2 2.9 14.3 0 8.2-2.9 14.3-2.8 6.2-8.2 9.8-5.5 3.4-13.5 3.4zm0-5.1q6.3 0 10.5-2.8 4.1-2.9 6.2-7.9 2.1-5.1 2.1-11.7 0-6.6-2.1-11.6-2.1-5-6.2-7.8-4.2-2.8-10.5-2.9-6.2 0-10.3 2.8-4.2 2.9-6.3 7.9-2.1 5-2.1 11.6 0 6.6 2 11.7 2.1 5 6.3 7.8 4.2 2.8 10.4 2.9zm56.2 4h-16.1v-52.8h16.1q0.9 0 2.9 0.1 2.1 0 4 0.3 6 0.8 10.1 4.5 4.1 3.6 6.1 9.2 2 5.6 2 12.3 0 6.8-2 12.4-2 5.6-6.1 9.2-4.1 3.7-10.1 4.5-1.9 0.2-4 0.3-2.1 0-2.9 0zm-10.5-47.6v42.5h10.5q1.6 0 3.3-0.1 1.8-0.1 3-0.4 4.7-0.8 7.5-3.7 2.9-2.9 4.2-7.3 1.4-4.5 1.4-9.8 0-5.3-1.4-9.7-1.3-4.4-4.2-7.3-2.8-2.9-7.5-3.7-1.2-0.3-3-0.4-1.8-0.1-3.3-0.1zm52.7 47.6h-5.7l18.4-52.8h7.2l18.3 52.8h-5.7l-4.4-12.7h1.9v-5.1h-3.7l-10.1-28.9-10 28.9h-3.7v5.1h1.9zm16.2-46.8l1.1-3h-2.1zm-11.8 33.9l1.7-5.1h20.2l1.7 5.1zm62.3 12.8h-5.5v-22.1l-17.8-30.7h6.3l14.3 24.5 14.2-24.5h6.3l-17.8 30.7z"/></svg>