<svg version="1.2" xmlns="http://www.w3.org/2000/svg" viewBox="0 0 580 67" width="580" height="67"><style>.a{fill:#dbc8a8}</style><path class="a" d="m580 0v67h-580v-67z"/><path fill-rule="evenodd" d="m69.4 45.8h-16v-25.3h16v2.9h-12.8v8h10.7v3h-10.7v8.5h12.8zm17.4 0.5q-2.7 0-4.9-0.9-2.1-0.9-3.5-2.6-1.4-1.7-1.8-4.1l3.2-0.5q0.6 2.4 2.5 3.8 2 1.3 4.6 1.3 1.7 0 3.1-0.5 1.4-0.6 2.2-1.6 0.8-1 0.8-2.3 0-0.9-0.3-1.5-0.3-0.6-0.8-1-0.5-0.5-1.1-0.8-0.6-0.3-1.3-0.5l-6.5-1.9q-1-0.3-2-0.8-1-0.5-1.8-1.2-0.7-0.7-1.2-1.8-0.5-1-0.5-2.4 0-2.3 1.2-3.9 1.2-1.6 3.2-2.4 2-0.9 4.5-0.8 2.6 0 4.6 0.9 2 0.9 3.3 2.5 1.3 1.7 1.8 4l-3.3 0.6q-0.3-1.6-1.2-2.7-0.9-1.1-2.3-1.7-1.3-0.6-2.9-0.7-1.6 0-2.8 0.5-1.3 0.5-2 1.5-0.8 0.9-0.8 2 0 1.2 0.7 1.9 0.7 0.7 1.7 1.2 0.9 0.4 1.9 0.6l4.8 1.4q0.8 0.3 1.9 0.7 1.1 0.4 2.1 1.1 1 0.7 1.7 1.9 0.6 1.2 0.6 3.1 0 1.8-0.7 3.2-0.7 1.5-2 2.4-1.3 1-3 1.5-1.8 0.5-3.7 0.5zm28.4 0q-3.8 0-6.4-1.7-2.7-1.7-4-4.6-1.4-3-1.4-6.9 0-3.9 1.4-6.9 1.3-3 4-4.7 2.6-1.7 6.4-1.7 4.4 0 7.2 2.3 2.9 2.2 3.9 6l-3.1 0.9q-0.8-2.9-2.8-4.5-2-1.7-5.2-1.7-2.8 0-4.7 1.3-1.9 1.3-2.8 3.6-1 2.3-1 5.4 0 3 0.9 5.3 1 2.3 2.9 3.6 1.9 1.3 4.7 1.3 3.2 0 5.2-1.6 2-1.7 2.8-4.5l3.1 0.8q-1 3.8-3.9 6.1-2.8 2.2-7.2 2.2zm30.3 0q-3.8 0-6.5-1.7-2.6-1.7-4-4.6-1.4-3-1.4-6.9 0-3.9 1.4-6.9 1.4-3 4-4.7 2.7-1.7 6.5-1.7 3.8 0 6.4 1.7 2.6 1.7 4 4.7 1.4 3 1.4 6.9 0 3.9-1.4 6.9-1.4 2.9-4 4.6-2.6 1.7-6.4 1.7zm0-3q2.8 0 4.7-1.3 1.9-1.3 2.8-3.6 0.9-2.3 0.9-5.3 0-3.1-0.9-5.4-0.9-2.3-2.8-3.6-1.9-1.2-4.7-1.3-2.9 0-4.8 1.3-1.8 1.3-2.8 3.6-0.9 2.3-0.9 5.4 0 3 0.9 5.3 0.9 2.3 2.8 3.6 1.9 1.3 4.8 1.3zm23.3 2.5h-3.2v-25.4h10q0.4 0 0.9 0 0.5 0 1 0.1 2.1 0.3 3.4 1.4 1.4 1.1 2.2 2.8 0.7 1.7 0.7 3.7 0 2.9-1.6 5.1-1 1.5-2.8 2.2l4.9 10.1h-3.6l-4.5-9.4h-7.4zm0-22.4v10h6.7q0.4 0 0.8 0 0.4 0 0.8-0.1 1.2-0.3 2-1.1 0.8-0.7 1.1-1.7 0.4-1 0.4-2.1 0-1.1-0.4-2.1-0.3-1-1.1-1.7-0.8-0.8-2-1.1-0.4-0.1-0.8-0.1-0.4 0-0.8 0zm33.9 22.4h-3.1v-22.4h-8.6v-3h20.3v3h-8.6zm37.5 0.5q-3.7 0-6.4-1.7-2.6-1.6-4-4.6-1.4-3-1.4-6.9 0-3.9 1.4-6.9 1.4-3 4-4.7 2.7-1.6 6.4-1.6 3.8 0 6.5 1.6 2.6 1.7 4 4.7 1.4 3 1.4 6.9 0 3.9-1.4 6.9-1.4 3-4 4.6-2.7 1.7-6.5 1.7zm0-3q2.9 0 4.7-1.3 1.9-1.3 2.9-3.6 0.9-2.3 0.9-5.3 0-3.1-0.9-5.4-1-2.3-2.9-3.5-1.8-1.3-4.7-1.3-2.8-0.1-4.7 1.2-1.8 1.3-2.8 3.6-0.9 2.3-0.9 5.4-0.1 3 0.9 5.3 0.9 2.3 2.8 3.6 1.9 1.3 4.7 1.3zm23.3 2.5h-3.1v-25.4h14.8v3.1h-11.7v8h9.6v3.1h-9.6zm41.2 0h-3.1v-22.4h-8.6v-2.9h20.4v2.9h-8.7zm19.4 0h-3.1v-25.4h3.1v11.2h13.4v-11.2h3.1v25.4h-3.1v-11.2h-13.4zm42.3 0h-16v-25.4h16v3h-12.9v8h10.8v2.9h-10.8v8.5h12.9zm23.9 0h-3v-25.3h2.9l9.5 20.2 9.5-20.2h2.9v25.3h-3v-18.5l-8.6 18.5h-1.6l-8.6-18.5zm42 0.6q-3.8 0-6.4-1.7-2.7-1.7-4.1-4.7-1.3-2.9-1.3-6.8 0-4 1.3-6.9 1.4-3 4.1-4.7 2.6-1.7 6.4-1.7 3.8 0 6.4 1.7 2.7 1.7 4 4.7 1.4 2.9 1.4 6.9 0 3.9-1.4 6.8-1.3 3-4 4.7-2.6 1.7-6.4 1.7zm0-3q2.8 0 4.7-1.3 1.9-1.3 2.8-3.6 1-2.3 1-5.3 0-3.1-1-5.4-0.9-2.3-2.8-3.6-1.9-1.3-4.7-1.3-2.8 0-4.7 1.3-1.9 1.3-2.8 3.6-1 2.3-1 5.4 0 3 0.9 5.3 1 2.3 2.9 3.6 1.9 1.3 4.7 1.3zm23.3 2.4h-3.1v-25.3h3.1l13.2 19.8v-19.8h3.2v25.3h-3.2l-13.2-19.8zm35.8 0h-3.1v-22.4h-8.6v-3h20.3v3h-8.6zm19.4 0h-3.1v-25.4h3.1v11.2h13.4v-11.2h3.1v25.4h-3.1v-11.2h-13.4z"/></svg>